<?xml version="1.0" encoding="utf-8"?>
<!-- Generator: Adobe Illustrator 27.0.0, SVG Export Plug-In . SVG Version: 6.00 Build 0)  -->
<svg version="1.1" id="Layer_1" xmlns="http://www.w3.org/2000/svg" xmlns:xlink="http://www.w3.org/1999/xlink" x="0px" y="0px"
	 viewBox="0 0 300.26 94.86" style="enable-background:new 0 0 300.26 94.86;" xml:space="preserve">
<style type="text/css">
	.st0{fill-rule:evenodd;clip-rule:evenodd;fill:#21211D;}
</style>
<path class="st0" d="M142.1,50.67h5.15l-10.29-24.21h-1.68h-3.47h-1.68l-10.29,24.21h5.15l1.83-4.29l13.46,0L142.1,50.67z
	 M128.7,41.93l4.84-11.38l4.84,11.38H128.7z M169.65,43.35c2.82-1.04,4.84-3.75,4.84-6.95v-2.53c0-4.09-4.1-7.41-9.16-7.41l-9,0
	h-1.08h-3.67v24.21h4.75v-6.86h2.64h5.18l5.09,6.86h5.84L169.65,43.35z M169.24,35.8c0,1.97-1.59,3.57-3.56,3.57h-9.35v-8.35h8.49
	c2.44,0,4.41,1.6,4.41,3.57L169.24,35.8L169.24,35.8z M199.65,26.47h-21.98v4.56h8.52v19.65h4.94V31.03h8.52V26.47z M208.61,26.47
	v16.71c0,1.46,1.18,2.65,2.64,2.65h7.63c1.46,0,2.64-1.18,2.64-2.65V26.47h4.9v17.27c0,3.83-3.37,6.93-7.53,6.93h-7.67
	c-4.16,0-7.53-3.1-7.53-6.93V26.47L208.61,26.47z M293.11,50.67h5.15l-10.29-24.21l-1.68,0h-3.47h-1.68l-10.29,24.21H276l1.82-4.29
	l13.46,0L293.11,50.67z M279.72,41.93l4.84-11.38l4.84,11.38H279.72z M250.31,43.35c2.82-1.04,4.84-3.75,4.84-6.95v-2.53
	c0-4.09-4.1-7.41-9.16-7.41l-9,0h-1.08h-3.67v24.21h4.75v-6.86h2.64h5.18l5.09,6.86h5.84L250.31,43.35z M249.89,35.8
	c0,1.97-1.59,3.57-3.56,3.57h-9.35v-8.35h8.49c2.44,0,4.41,1.6,4.41,3.57L249.89,35.8z M261.75,50.67h4.92V26.47h-4.92V50.67z
	 M120.37,69.08h7.07v1.36h-7.07V69.08z M133.89,59.11h-2.07h-3.29v1.36h2.07v8.17h1.22v-8.17h2.07V59.11z M139.01,61.69h-0.94
	l-1.01,0.76v-3.48h-1.22v9.66h1.22V64.1l1.39-1.05h0.56c0.54,0,0.97,0.49,0.97,1.09v4.49h1.22v-4.49
	C141.21,62.78,140.22,61.69,139.01,61.69z M148.52,64c-0.06-1.29-1.01-2.31-2.19-2.31h-0.98c-1.21,0-2.19,1.09-2.19,2.45v2.03
	c0,1.35,0.99,2.46,2.19,2.46h0.98c1.22,0,2.19-1.12,2.19-2.46v-0.14h-1.22v0.14c0,0.6-0.44,1.09-0.97,1.09h-0.98
	c-0.54,0-0.97-0.49-0.97-1.09v-0.69h4.14v-0.15v-1.05V64z M147.3,64.39h-2.93v-0.24c0-0.6,0.43-1.09,0.97-1.09h0.98
	c0.55,0,0.97,0.48,0.97,1.09V64.39z M157.78,66.34v0.27c0,1.16,0.88,2.02,2.06,2.02h1.23c1.23,0,2.07-0.78,2.07-1.92
	c0-2.78-4.06-2.08-4.06-3.18c0-0.29,0.22-0.47,0.73-0.47h1.17c0.43,0,0.73,0.28,0.73,0.66v0.12h1.22v-0.12
	c0-1.14-0.85-2.03-1.95-2.03h-1.17c-1.16,0-1.95,0.73-1.95,1.83c0,2.64,4.06,1.64,4.06,3.18c0,0.34-0.28,0.56-0.85,0.56h-1.23
	c-0.52,0-0.84-0.27-0.84-0.66v-0.27H157.78z M168.27,68.63c1.22,0,2.19-1.08,2.19-2.44v-2.05c0-1.36-0.97-2.45-2.19-2.45h-0.98
	c-1.22,0-2.19,1.09-2.19,2.45v2.05c0,1.36,0.98,2.44,2.19,2.44H168.27z M168.27,67.27h-0.98c-0.55-0.01-0.97-0.46-0.97-1.08v-2.05
	c0-0.61,0.43-1.09,0.97-1.09h0.98c0.55,0,0.97,0.48,0.97,1.09v2.05C169.24,66.81,168.81,67.27,168.27,67.27z M176.55,61.69v4.53
	l-1.39,1.05h-0.56c-0.54,0-0.97-0.49-0.97-1.09v-4.49h-1.22v4.49c0,1.36,0.99,2.45,2.19,2.45h0.94l1.01-0.76v0.76h1.22v-6.94H176.55
	z M182.89,61.69h-0.94l-1.01,0.76v-0.76h-1.22v6.94h1.22V64.1l1.39-1.05h0.56c0.54,0,0.97,0.49,0.97,1.09v4.49h1.22v-4.49
	C185.08,62.78,184.1,61.69,182.89,61.69z M191.18,58.97v3.48l-1.01-0.76h-0.94c-1.21,0-2.19,1.09-2.19,2.45v2.04
	c0,1.35,0.99,2.45,2.19,2.45h0.94l1.01-0.76v0.76h1.22v-9.66H191.18z M189.79,67.27h-0.56c-0.54,0-0.97-0.49-0.97-1.09v-2.04
	c0-0.6,0.44-1.09,0.97-1.09h0.56l1.39,1.05v2.12L189.79,67.27z M207.02,64c-0.06-1.29-1.01-2.31-2.19-2.31h-0.98
	c-1.21,0-2.19,1.09-2.19,2.45v2.03c0,1.35,0.99,2.46,2.19,2.46h0.98c1.22,0,2.19-1.12,2.19-2.46v-0.14h-1.22v0.14
	c0,0.6-0.44,1.09-0.97,1.09h-0.98c-0.54,0-0.97-0.49-0.97-1.09v-0.69h4.14v-0.15v-1.05V64z M205.8,64.39h-2.93v-0.24
	c0-0.6,0.43-1.09,0.97-1.09h0.98c0.55,0,0.97,0.48,0.97,1.09V64.39z M214.34,61.69h-1.44l-1.24,2.2l-1.24-2.2h-1.44l1.96,3.47
	l-1.96,3.47h1.44l1.24-2.2l1.24,2.2h1.44l-1.96-3.47L214.34,61.69z M219.45,61.69h-0.94l-1.01,0.76v-0.76h-1.22v9.8h1.22v-3.62
	l1.01,0.76h0.94c1.21,0,2.19-1.09,2.19-2.45v-2.04C221.65,62.79,220.66,61.69,219.45,61.69z M220.43,66.18
	c0,0.6-0.44,1.09-0.98,1.09h-0.56l-1.39-1.05V64.1l1.39-1.05h0.56c0.54,0,0.98,0.49,0.98,1.09V66.18z M226.83,67.27v-8.3h-3.23v1.36
	h2.01v6.94h-2.01v1.36h2.01h3.35v-1.36H226.83z M234.08,68.63c1.22,0,2.19-1.08,2.19-2.44v-2.05c0-1.36-0.97-2.45-2.19-2.45h-0.98
	c-1.22,0-2.19,1.09-2.19,2.45v2.05c0,1.36,0.98,2.44,2.19,2.44H234.08z M234.08,67.27h-0.98c-0.55-0.01-0.97-0.46-0.97-1.08v-2.05
	c0-0.61,0.43-1.09,0.97-1.09h0.98c0.55,0,0.97,0.48,0.97,1.09v2.05C235.05,66.81,234.63,67.27,234.08,67.27z M241.39,61.69h-0.5
	l-1.45,1.09v-1.09h-1.22v6.94h1.22v-4.21l1.83-1.37h0.12c0.54,0,0.97,0.49,0.97,1.09v0.54h1.22v-0.54
	C243.59,62.78,242.6,61.69,241.39,61.69z M250.9,64c-0.06-1.29-1.01-2.31-2.19-2.31h-0.98c-1.21,0-2.19,1.09-2.19,2.45v2.03
	c0,1.35,0.99,2.46,2.19,2.46h0.98c1.22,0,2.19-1.12,2.19-2.46v-0.14h-1.22v0.14c0,0.6-0.44,1.09-0.97,1.09h-0.98
	c-0.54,0-0.97-0.49-0.97-1.09v-0.69h4.14v-0.15v-1.05V64z M249.68,64.39h-2.93v-0.24c0-0.6,0.43-1.09,0.97-1.09h0.98
	c0.55,0,0.97,0.48,0.97,1.09V64.39z M256.02,61.69h-0.5l-1.45,1.09v-1.09h-1.22v6.94h1.22v-4.21l1.83-1.37h0.12
	c0.54,0,0.98,0.49,0.98,1.09v0.54h1.22v-0.54C258.21,62.78,257.22,61.69,256.02,61.69z M260.16,66.34v0.27
	c0,1.16,0.88,2.02,2.06,2.02h1.23c1.23,0,2.07-0.78,2.07-1.92c0-2.78-4.06-2.08-4.06-3.18c0-0.29,0.22-0.47,0.73-0.47h1.17
	c0.43,0,0.73,0.28,0.73,0.66v0.12h1.22v-0.12c0-1.14-0.85-2.03-1.95-2.03h-1.17c-1.16,0-1.95,0.73-1.95,1.83
	c0,2.64,4.06,1.64,4.06,3.18c0,0.34-0.28,0.56-0.85,0.56h-1.23c-0.52,0-0.84-0.27-0.84-0.66v-0.27H260.16z M68.96,46.12l0.03-7.58
	c-1.55,0.02-3.32,0.14-4.15,0.35c-1.18,0.3-2.64,1.01-4.19,1.92c-2.34-7.12-5.55-16.44-8.24-19.79c-3.95-4.92-9.39-3.67-12.89,2.07
	c-1.83,3-4.34,10.22-6.87,17.7c-1.63-0.96-3.31-1.79-4.75-2.03c-1.07-0.18-2.35-0.24-3.64-0.3c0,2.59,0,5.18,0,7.77
	c2.6,0,3.11,0.23,5.84,1.91l0.05,0.03c-1.58,4.61-3.07,8.79-4.3,11.51c-0.78,1.71-1.34,2.48-1.91,3.25
	c-0.45-0.01-0.9-0.01-1.35-0.02c-0.02,3.06-0.05,6.11-0.07,9.17c2.23,0.04,2.95,0.08,4.81-1.36c3.71-2.87,7.03-10.15,9.91-18.12
	c2.45,1.43,4.91,2.67,6.91,3.09c3.98,0.84,7.06-0.28,10.91-2.65c0.29-0.18,0.62-0.38,0.96-0.6c2.39,6.71,5.57,14.33,9.02,17.44
	c2.26,2.04,3.09,2.19,5.71,2.25c-0.03-3.01-0.07-6.02-0.1-9.04c-0.46,0.01-0.91,0.03-1.37,0.04c-2.93-5.44-4.13-8.88-6.24-15.12
	c1.21-0.69,2.3-1.24,3.1-1.49C67.51,46.11,67.5,46.12,68.96,46.12z M53.62,45.4c-1.6,1.06-3,1.94-3.96,2.33
	c-3.79,1.52-6.74-0.07-9.98-2.27c2.06-6.32,3.85-12.38,5.33-16.37c0.86-2.33,1.74-3.58,2.79-0.69c1.4,3.83,3.77,10.83,5.45,15.9
	L53.62,45.4z M46.39,10.12c21.14,0,38.28,17.15,38.28,38.31S67.53,86.74,46.39,86.74c-21.14,0-38.28-17.15-38.28-38.31
	S25.25,10.12,46.39,10.12z M46.39,2c25.62,0,46.39,20.79,46.39,46.43S72.01,94.86,46.39,94.86S0,74.07,0,48.43S20.77,2,46.39,2z"/>
</svg>
