<?xml version="1.0" encoding="UTF-8"?>
<svg id="svg62" version="1.1" viewBox="0 0 413.45 57.04" xmlns="http://www.w3.org/2000/svg">
<title>Audient logo (2021)</title>
<desc>British audio equipment manufacturer</desc>
 <defs id="defs44">
  <style id="style42">.cls-1{fill:#090909;}</style>
 </defs>
 <g id="Layer_2">
  <g id="Layer_1-2">
   <path id="path46" class="cls-1" d="m152.15 0.88h-19.28v55.26h19.28c17.2 0 28.76-11.26 28.76-28 0-16.05-11.83-27.26-28.76-27.26zm0 47.59h-11.39v-40h11.39c12.24 0 20.79 8.09 20.79 19.66 0 11.98-8.55 20.34-20.79 20.34z"/>
   <path id="path48" class="cls-1" d="M107.83,32.72c0,9.81-6.41,16.65-15.6,16.65S76.71,42.53,76.71,32.72V.88h-7.9V32.72C68.81,47,78.44,57,92.23,57s23.49-10,23.49-24.32V.88h-7.89Z"/>
   <polygon id="polygon50" class="cls-1" points="364.76 0.89 364.76 8.47 385.19 8.47 385.19 56.14 393.09 56.14 393.09 8.47 413.45 8.47 413.45 0.89"/>
   <polygon id="polygon52" class="cls-1" points="338.24 38.48 296.6 0 296.6 56.14 304.49 56.14 304.49 18.52 346.13 57.02 346.13 0.89 338.24 0.89"/>
   <polygon id="polygon54" class="cls-1" points="231.84 56.14 274.93 56.14 274.93 48.47 239.73 48.47 239.73 32.38 271.92 32.38 271.92 24.79 239.73 24.79 239.73 8.47 274.93 8.47 274.93 0.89 231.84 0.89"/>
   <path id="path56" class="cls-1" d="M0,56.1H8.32l.56-1.05a20.22,20.22,0,0,1,12.55-9.13,29.93,29.93,0,0,1,14.57,0A20.29,20.29,0,0,1,48.55,55l.54,1.07h8.35L28.72.2ZM40.44,39.49a40,40,0,0,0-11.72-1.87A40,40,0,0,0,17,39.49L28.72,16.2Z"/>
   <rect id="rect58" class="cls-1" x="201.4" y=".88" width="7.89" height="55.25"/>
  </g>
 </g>
</svg>
