<?xml version="1.0" encoding="utf-8"?>
<!-- Generator: Adobe Illustrator 27.0.0, SVG Export Plug-In . SVG Version: 6.00 Build 0)  -->
<svg version="1.1" id="Layer_1" xmlns="http://www.w3.org/2000/svg" xmlns:xlink="http://www.w3.org/1999/xlink" x="0px" y="0px"
	 viewBox="0 0 176.46 71.87" style="enable-background:new 0 0 176.46 71.87;" xml:space="preserve">
<style type="text/css">
	.st0{stroke:#000000;stroke-miterlimit:3.8637;}
	.st1{fill-rule:evenodd;clip-rule:evenodd;stroke:#000000;stroke-miterlimit:3.8637;}
	.st2{fill-rule:evenodd;clip-rule:evenodd;}
</style>
<path class="st0" d="M133.43,37.36c0.85-0.03,2.94,0.24,7.47,0.41c4.74,0.18,5.68-3.49,5.49-5.76c-4.83,1.04-5.98,1.31-10.15,1.31
	c-4.38,0-9.77,1.22-9.87,5.07c-0.1,3.82,4.9,4.68,7.5,5.41c0.72,0.17,0.99,0.75,0.51,1.13c-1.11,0.89-3.62,2.06-3.92,4.15
	c-0.42,2.96,2.27,5.28,5.69,5.21c4.55-0.09,9.57-2.03,14.4-7.82c1.36-1.64,2.89-4.4,3.84-5.62c0.23-0.44,0.88-0.65,1.16-0.62
	c0.86,0.19,2.08,0.84,1.92,1.78c-0.25,1.43-4.15,5.9-1.55,8.59c1.6,1.65,5.62,2.85,8.82,0.52c3-2.18,1.94-4.17,0.75-4.32
	c-0.85-0.1-3.22,2.88-5.14,0.75c-1.59-1.76,2.19-5.41,2.95-6.72c1.09-1.88-3.15-3.29-4.93-5.62c-1.15-1.53,1.83-6.24-1.9-7.48
	c-1.22-0.41-4.99,1.86-3.65,8.38c-1.71,6.44-14.76,17.71-16.5,13.17c-0.42-1.11,0.7-2.95,3.69-3.57c4.94-1.03,4.55-4.08,2.19-4.39
	c-3.7-0.48-4.73-0.48-9.14-1.51C131.33,39.64,131.38,37.33,133.43,37.36L133.43,37.36z"/>
<path class="st0" d="M62.03,44.46c-1.19,1.2-2.56,2.87-2.74,4.21c-0.4,2.91,1.1,5.48,4.8,5.41c3.97-0.07,5.28-2.95,11.92-6.99
	c1.86-1.13,4.16-3.04,5.11-3.19c0.37,0,0.9,0.11,0.86,0.81c-0.56,2.65-1.18,4.43-0.49,6.7c0.48,1.59,2.59,2.59,4.11,1.44
	c2.54-1.92,2.57-3.01,5.86-7.33c0.54-0.72,2.54-4,3.46-3.56c0.77,0.36,0.55,1.43,0.41,2.26c-0.69,4.05-2.45,10.44,5.55,9.46
	c1.9-0.23,3.43-1.52,1.99-2.88c-0.87-0.82-1.85-0.23-2.95-0.48c-2.57-0.59,3.78-12.29,0.75-14.46c-4.26-3.05-8.21,2.36-11.17,6.3
	c-1.17,1.56-2.03,0.87-2.79-1.32c-0.84-2.44-5.91-0.66-8.82,0.84c-4.64,2.39-13.21,10.4-14,6.41c-0.14-0.69,0.98-2.23,3.06-2.99
	c2.44-0.89,5.21-1.68,5.21-3.15c0-1.14-0.69-1.94-1.42-1.9c-3.41,0.19-7.38,1.09-11.92-0.16c-1.03-0.01-1.48-2.61,1.59-2.27
	c0.81,0.09,2.62,0.21,9.49,0.35c4.84,0.1,4.94-3.52,4.29-5.45c-4.02,1.2-6.07,1.06-10.33,1.06c-4.47,0-10.48,0.62-10.23,4.92
	c0.22,3.62,5.3,4.62,7.93,4.91C62.33,43.36,62.57,44.08,62.03,44.46L62.03,44.46z"/>
<path class="st1" d="M47.36,35.17c0.41-1.51,1.3-1.85,2.47-2.12c1.74-0.57,4.18-1.33,5.68-1.6c3.78-0.93,4.87-0.71,5.36-3.33
	c0.34-1.82-0.45-2.69-0.45-2.69s-8.25,2.58-9.9,3.04c-1.44,0.62-1.17-0.89-1.17-0.89s-0.21,0.96,0.69-2.95
	C52.73,12.73,51.15,9.57,49,7.76C43.57,3.27,23.73,12.59,9.53,23.8c-4.73,4.11-7.47,5.07-4.39,8.36c2.74,2.74,4.52,0.69,4.52,0.69
	c2.6-2.06,8.22-7.81,11.92-10.55c5.27-3.9,12.54-9.53,18.98-11.03c5.11-1.29,6.65,0.21,5.96,5.41c-0.4,4.47-3.84,14.53-3.84,14.53
	s-5.28,2.36-6.85,2.95c-1.23,0.46-2.54,0.14-2.68,2.95c-0.06,3.01,1.76,1.88,2.99,1.42c0.95-0.36,3.18-1.41,4.01-1.76
	c0.62-0.48,1.3-0.07,0.96,0.82c-0.62,1.99-1.73,5.21-3.84,9.87c-2.67,6.37-7.47,15.08-8.09,17.27c0.07,1.44,1.65,1.64,3.72,1.67
	c1.91-0.15,2.79-1.47,2.79-1.47s2.48-5.33,6.3-14.73C44.79,43.36,46.6,37.72,47.36,35.17L47.36,35.17z"/>
<path class="st0" d="M115.57,37.67c-2.97-0.86-5.57,2.66-6.33,5.8c-0.69,2.86-0.33,6.7,2.26,7.2c2.07,0.4,4.48-1.42,5.1-4.77
	c0.16-0.9,0.55-3.77,0.66-4.5c0.71-4.56,1.25-6.55,1.25-6.55c2.48-9.51,8.43-28.01,10.05-29.09c1.68-1.12,6.31-1.31,4.86,2.55
	c-2.25,6-4.87,11.32-7.24,18.72c-2.78,8.68-8.16,22.61-3.36,23.23c2.24,0.29,3.15-1.78,4.5-0.73c2.06,1.61-0.19,4.52-4.16,4.91
	c-5.46,0.2-5.34-3-7.76-1.62c-7.76,4.41-12.54-1.76-11.01-9.48c1.31-6.62,6.41-11.29,12.1-8.43c0,0,1.46,0.72,1.34,1.96
	C117.72,37.81,117,38,115.57,37.67L115.57,37.67z"/>
<path class="st2" d="M166.81,28.93c0.53,0,0.92,0.05,1.17,0.15c0.44,0.18,0.66,0.55,0.66,1.09c0,0.38-0.14,0.67-0.42,0.85
	c-0.15,0.1-0.36,0.16-0.62,0.21c0.34,0.05,0.58,0.19,0.74,0.42c0.16,0.23,0.23,0.45,0.23,0.66v0.31c0,0.1,0,0.21,0.01,0.32
	c0.01,0.11,0.02,0.19,0.04,0.22l0.03,0.05h-0.71c0-0.01-0.01-0.03-0.01-0.04c0-0.01-0.01-0.03-0.01-0.05l-0.02-0.14v-0.34
	c0-0.5-0.13-0.82-0.4-0.98c-0.16-0.09-0.44-0.14-0.84-0.14h-0.6v1.69h-0.76v-4.29H166.81z M167.62,29.61
	c-0.19-0.11-0.49-0.16-0.91-0.16h-0.64V31h0.68c0.32,0,0.56-0.03,0.72-0.1c0.29-0.12,0.44-0.34,0.44-0.67
	C167.91,29.92,167.81,29.71,167.62,29.61L167.62,29.61 M169.65,33.86c-0.76,0.77-1.68,1.15-2.77,1.15s-2-0.38-2.76-1.15
	c-0.76-0.76-1.13-1.69-1.13-2.77c0-1.08,0.38-1.99,1.14-2.76c0.76-0.76,1.68-1.14,2.75-1.14c1.08,0,2,0.38,2.77,1.14
	c0.76,0.76,1.14,1.68,1.14,2.76C170.79,32.17,170.41,33.09,169.65,33.86L169.65,33.86 M164.51,28.71c-0.65,0.66-0.98,1.45-0.98,2.38
	c0,0.94,0.33,1.73,0.97,2.39c0.65,0.66,1.45,0.99,2.38,0.99c0.93,0,1.72-0.33,2.38-0.99c0.65-0.66,0.98-1.46,0.98-2.39
	c0-0.93-0.33-1.72-0.98-2.38c-0.66-0.66-1.45-0.99-2.38-0.99C165.96,27.72,165.17,28.05,164.51,28.71L164.51,28.71"/>
</svg>
