<?xml version="1.0" encoding="utf-8"?>
<!-- Generator: Adobe Illustrator 27.0.0, SVG Export Plug-In . SVG Version: 6.00 Build 0)  -->
<svg version="1.1" id="Layer_1" xmlns="http://www.w3.org/2000/svg" xmlns:xlink="http://www.w3.org/1999/xlink" x="0px" y="0px"
	 viewBox="0 0 262.98 170.81" style="enable-background:new 0 0 262.98 170.81;" xml:space="preserve">
<style type="text/css">
	.st0{clip-path:url(#SVGID_00000137107948250591978260000004964742305588703381_);}
	.st1{clip-path:url(#SVGID_00000173157346994167804050000001991506578248338859_);}
	.st2{clip-path:url(#SVGID_00000008852208354125511560000013035363689732008602_);fill:#FFF200;}
	.st3{clip-path:url(#SVGID_00000009568859087669289070000001445026313143487676_);fill:#FFFFFF;}
	.st4{clip-path:url(#SVGID_00000046298634810436262040000014674103230398249890_);fill:#FFFFFF;}
	.st5{clip-path:url(#SVGID_00000010999967649679941330000012425111413244792452_);fill:#FFFFFF;}
	.st6{clip-path:url(#SVGID_00000167375820711986902530000007656686391770918583_);fill:#FFFFFF;}
	.st7{clip-path:url(#SVGID_00000000207838200668880580000005900268700273964211_);fill:#FFFFFF;}
	.st8{clip-path:url(#SVGID_00000091001292799365595480000007476312273626575521_);fill:#FFFFFF;}
	.st9{clip-path:url(#SVGID_00000023246243426680035030000010184062253589710750_);fill:#FFFFFF;}
	.st10{clip-path:url(#SVGID_00000137090638459298426490000007030317012889988511_);fill:#FFFFFF;}
	.st11{clip-path:url(#SVGID_00000023274156232612293540000013914048505130025605_);fill:#FFFFFF;}
	.st12{clip-path:url(#SVGID_00000109030828675145950810000011688769645250827139_);fill:#FFFFFF;}
</style>
<g>
	<g>
		<defs>
			<rect id="SVGID_1_" x="-32.63" y="-5.47" width="302.32" height="195.96"/>
		</defs>
		<clipPath id="SVGID_00000086687434946594620720000017527003533602446993_">
			<use xlink:href="#SVGID_1_"  style="overflow:visible;"/>
		</clipPath>
		<g style="clip-path:url(#SVGID_00000086687434946594620720000017527003533602446993_);">
			<g>
				<defs>
					<rect id="SVGID_00000111909925655990779540000011920137437942269081_" x="0" y="0.18" width="261.97" height="170.44"/>
				</defs>
				<clipPath id="SVGID_00000145747344989542862020000012846879314653174401_">
					<use xlink:href="#SVGID_00000111909925655990779540000011920137437942269081_"  style="overflow:visible;"/>
				</clipPath>
				<path style="clip-path:url(#SVGID_00000145747344989542862020000012846879314653174401_);" d="M255.05,0.18H6.92
					C3.1,0.18,0,3.1,0,6.71v157.38c0,3.6,3.1,6.53,6.92,6.53h248.13c3.83,0,6.93-2.93,6.93-6.53V6.71
					C261.98,3.1,258.88,0.18,255.05,0.18"/>
			</g>
			<g>
				<defs>
					<rect id="SVGID_00000017512389089168361990000015381317720743567004_" x="0" y="0.18" width="261.97" height="170.44"/>
				</defs>
				<clipPath id="SVGID_00000011719709164621300040000008289139835141986440_">
					<use xlink:href="#SVGID_00000017512389089168361990000015381317720743567004_"  style="overflow:visible;"/>
				</clipPath>
				<polyline style="clip-path:url(#SVGID_00000011719709164621300040000008289139835141986440_);fill:#FFF200;" points="
					206.58,71.85 246.5,133.77 246.5,13.01 				"/>
			</g>
			<g>
				<defs>
					<rect id="SVGID_00000093862973475533645270000012055622076280785065_" x="0" y="0.18" width="261.97" height="170.44"/>
				</defs>
				<clipPath id="SVGID_00000104704317904652654700000016830523636752758669_">
					<use xlink:href="#SVGID_00000093862973475533645270000012055622076280785065_"  style="overflow:visible;"/>
				</clipPath>
				<polyline style="clip-path:url(#SVGID_00000104704317904652654700000016830523636752758669_);fill:#FFFFFF;" points="
					43.36,70.59 81.23,134.03 63.63,134.03 30.22,73 29.78,73 29.78,134.03 14.19,134.03 14.19,12.94 29.78,12.94 29.78,67.86 
					30.22,67.86 63.63,12.94 81,12.94 				"/>
			</g>
			<g>
				<defs>
					<rect id="SVGID_00000102537582731403420090000007204130216839355062_" x="0" y="0.18" width="261.97" height="170.44"/>
				</defs>
				<clipPath id="SVGID_00000165950520914641010500000012254131320172305302_">
					<use xlink:href="#SVGID_00000102537582731403420090000007204130216839355062_"  style="overflow:visible;"/>
				</clipPath>
				<path style="clip-path:url(#SVGID_00000165950520914641010500000012254131320172305302_);fill:#FFFFFF;" d="M85.23,134.03V12.94
					h16.7c23.38,0,45.87,1.28,45.87,30.83c0,15.42-4.67,30.51-31.62,31.16l37.19,59.1H136.9l-35.63-59.26h-0.44v59.26 M100.82,65.61
					h5.57c21.82,0,25.39-5.46,25.39-21.36c0-19.11-8.02-21.03-27.84-21.03h-3.12L100.82,65.61L100.82,65.61z"/>
			</g>
			<g>
				<defs>
					<rect id="SVGID_00000141430162783118441510000007489762422123033511_" x="0" y="0.18" width="261.97" height="170.44"/>
				</defs>
				<clipPath id="SVGID_00000075128959156253232140000002722015212221873584_">
					<use xlink:href="#SVGID_00000141430162783118441510000007489762422123033511_"  style="overflow:visible;"/>
				</clipPath>
				<polyline style="clip-path:url(#SVGID_00000075128959156253232140000002722015212221873584_);fill:#FFFFFF;" points="
					186.79,70.59 224.65,134.03 207.06,134.03 173.65,73 173.2,73 173.2,134.03 157.61,134.03 157.61,12.94 173.2,12.94 
					173.2,67.86 173.65,67.86 207.06,12.94 224.43,12.94 				"/>
			</g>
			<g>
				<defs>
					<rect id="SVGID_00000008114524425355092000000001135376664190631817_" x="0" y="0.18" width="261.97" height="170.44"/>
				</defs>
				<clipPath id="SVGID_00000033339676642385945700000006034839215906885261_">
					<use xlink:href="#SVGID_00000008114524425355092000000001135376664190631817_"  style="overflow:visible;"/>
				</clipPath>
				<path style="clip-path:url(#SVGID_00000033339676642385945700000006034839215906885261_);fill:#FFFFFF;" d="M20.5,151.11
					c-0.48-0.61-1.11-1.01-1.95-1.01c-0.81,0-1.59,0.58-1.59,1.38c0,2.06,5.17,1.2,5.17,5.31c0,2.45-1.63,4.19-4.29,4.19
					c-1.8,0-3.11-0.98-4.01-2.39l1.64-1.51c0.35,0.94,1.26,1.78,2.36,1.78c1.04,0,1.68-0.82,1.68-1.77c0-1.26-1.25-1.62-2.27-2
					c-1.68-0.65-2.9-1.44-2.9-3.34c0-2.02,1.61-3.66,3.81-3.66c1.16,0,2.77,0.53,3.57,1.36"/>
			</g>
			<g>
				<defs>
					<rect id="SVGID_00000088119345137673651480000016554486911479117703_" x="0" y="0.18" width="261.97" height="170.44"/>
				</defs>
				<clipPath id="SVGID_00000096753783381705858840000004168966225616431492_">
					<use xlink:href="#SVGID_00000088119345137673651480000016554486911479117703_"  style="overflow:visible;"/>
				</clipPath>
				<polyline style="clip-path:url(#SVGID_00000096753783381705858840000004168966225616431492_);fill:#FFFFFF;" points="
					49.77,148.42 52.74,148.42 55.02,152.66 57.51,148.42 60.48,148.42 56.36,155.03 56.36,160.65 53.82,160.65 53.82,155.03 				
					"/>
			</g>
			<g>
				<defs>
					<rect id="SVGID_00000096748178949049389370000002025553852693568926_" x="0" y="0.18" width="261.97" height="170.44"/>
				</defs>
				<clipPath id="SVGID_00000147913457518470927980000006083240458264563368_">
					<use xlink:href="#SVGID_00000096748178949049389370000002025553852693568926_"  style="overflow:visible;"/>
				</clipPath>
				<path style="clip-path:url(#SVGID_00000147913457518470927980000006083240458264563368_);fill:#FFFFFF;" d="M94.8,151.11
					c-0.48-0.61-1.1-1.01-1.95-1.01c-0.82,0-1.59,0.58-1.59,1.38c0,2.06,5.17,1.2,5.17,5.31c0,2.45-1.63,4.19-4.29,4.19
					c-1.81,0-3.12-0.98-4.02-2.39l1.65-1.51c0.35,0.94,1.26,1.78,2.35,1.78c1.04,0,1.68-0.82,1.68-1.77c0-1.26-1.25-1.62-2.26-2
					c-1.68-0.65-2.91-1.44-2.91-3.34c0-2.02,1.61-3.66,3.81-3.66c1.16,0,2.77,0.53,3.56,1.36"/>
			</g>
			<g>
				<defs>
					<rect id="SVGID_00000016059977094021278180000013491526181998892173_" x="0" y="0.18" width="261.97" height="170.44"/>
				</defs>
				<clipPath id="SVGID_00000009562577300059914130000014602954533561572285_">
					<use xlink:href="#SVGID_00000016059977094021278180000013491526181998892173_"  style="overflow:visible;"/>
				</clipPath>
				<polyline style="clip-path:url(#SVGID_00000009562577300059914130000014602954533561572285_);fill:#FFFFFF;" points="
					129.53,160.65 126.98,160.65 126.98,150.49 124.35,150.49 124.35,148.42 132.16,148.42 132.16,150.49 129.53,150.49 				"/>
			</g>
			<g>
				<defs>
					<rect id="SVGID_00000079461870800710397350000008148353443274398651_" x="0" y="0.18" width="261.97" height="170.44"/>
				</defs>
				<clipPath id="SVGID_00000062881937217387762030000017283074373313351597_">
					<use xlink:href="#SVGID_00000079461870800710397350000008148353443274398651_"  style="overflow:visible;"/>
				</clipPath>
				<polyline style="clip-path:url(#SVGID_00000062881937217387762030000017283074373313351597_);fill:#FFFFFF;" points="
					163.15,150.49 163.15,153.18 167.21,153.18 167.21,155.26 163.15,155.26 163.15,158.57 167.36,158.57 167.36,160.65 
					160.61,160.65 160.61,148.42 167.36,148.42 167.36,150.49 				"/>
			</g>
			<g>
				<defs>
					<rect id="SVGID_00000052809115707274031320000011632068409363125633_" x="0" y="0.18" width="261.97" height="170.44"/>
				</defs>
				<clipPath id="SVGID_00000129900974302980913480000010433880286012126655_">
					<use xlink:href="#SVGID_00000052809115707274031320000011632068409363125633_"  style="overflow:visible;"/>
				</clipPath>
				<polyline style="clip-path:url(#SVGID_00000129900974302980913480000010433880286012126655_);fill:#FFFFFF;" points="
					206.32,153.05 206.29,153.05 203.33,160.81 202.45,160.81 199.59,153.05 199.56,153.05 198.39,160.65 195.84,160.65 
					198.04,148.09 199.84,148.09 203.05,156.15 206.13,148.09 207.97,148.09 209.92,160.65 207.36,160.65 				"/>
			</g>
			<g>
				<defs>
					<rect id="SVGID_00000117653555243286827400000004421148711543749004_" x="0" y="0.18" width="261.97" height="170.44"/>
				</defs>
				<clipPath id="SVGID_00000009558741900207600110000018307426044973206942_">
					<use xlink:href="#SVGID_00000117653555243286827400000004421148711543749004_"  style="overflow:visible;"/>
				</clipPath>
				<path style="clip-path:url(#SVGID_00000009558741900207600110000018307426044973206942_);fill:#FFFFFF;" d="M244.71,151.11
					c-0.49-0.61-1.11-1.01-1.95-1.01c-0.82,0-1.59,0.58-1.59,1.38c0,2.06,5.17,1.2,5.17,5.31c0,2.45-1.63,4.19-4.29,4.19
					c-1.8,0-3.12-0.98-4.02-2.39l1.64-1.51c0.34,0.94,1.27,1.78,2.36,1.78c1.04,0,1.68-0.82,1.68-1.77c0-1.26-1.25-1.62-2.27-2
					c-1.68-0.65-2.91-1.44-2.91-3.34c0-2.02,1.61-3.66,3.81-3.66c1.16,0,2.77,0.53,3.56,1.36"/>
			</g>
		</g>
	</g>
</g>
</svg>
