<?xml version="1.0" encoding="utf-8"?>
<!-- Generator: Adobe Illustrator 27.0.0, SVG Export Plug-In . SVG Version: 6.00 Build 0)  -->
<svg version="1.1" id="layer" xmlns="http://www.w3.org/2000/svg" xmlns:xlink="http://www.w3.org/1999/xlink" x="0px" y="0px"
	 viewBox="0 0 652 156" style="enable-background:new 0 0 652 156;" xml:space="preserve">
<style type="text/css">
	.st0{opacity:0.2;enable-background:new    ;}
	.st1{fill:#7CB500;}
</style>
<path class="st0" d="M147.1,130.96c2.5-1.4,4.8-3.5,6.4-6.5c1.4-2.7,2.1-6.2,1.8-10.7v0.2c-0.6-13.8-3.7-28-9.3-41.2
	c-5.4-13-13-25.2-22.4-35.3c-5.2-5.5-11.8-11.6-18.3-16c-5.7-4-11.6-6.6-16.5-6.6c-5.1,0-11,2.6-16.7,6.6
	c-6.4,4.5-13.1,10.6-18.2,16c-9.4,10.1-17.1,22.3-22.5,35.3c-5.5,13.2-8.7,27.4-9.4,41.2v-0.2c-0.3,4.5,0.4,7.9,1.9,10.7
	c1.5,3,3.7,5.1,6.3,6.5c17.1,10.5,37.8,15.6,58.5,15.6C109.3,146.56,130,141.36,147.1,130.96L147.1,130.96"/>
<path class="st1" d="M148.5,114.26c-1.1-26-12.1-53-29.9-72c-8.6-9.2-21.8-20.5-29.7-20.5c-8,0-21.3,11.3-29.9,20.5
	c-17.9,19.1-28.8,46.1-29.8,72c-0.5,6.2,1.7,8.9,4.8,10.7c16.1,9.8,35.5,14.7,55,14.7c19.3,0,38.8-4.9,54.9-14.7
	C146.6,123.16,148.9,120.46,148.5,114.26 M38.7,93.96c2.1-9.8,6.7-20,12.4-29.8c8.2-14.4,20.6-26.9,33.7-34.6
	c1.3-0.8,2.6-1.1,4.1-1.1c3.4,0.1,6.6,2.2,8.7,4.7c-2.7,0.6-5.8,1.8-8.7,3.7c-15.7,9.5-32.7,34.2-32.7,49.4
	c-0.1,10.2,20.7,14.9,32.7,11.1c0.4-0.1,0.9-0.3,1.3-0.4c4.1-1.6,6.4-2.7,7.7-1c1.4,2,3.2,8.7,3,12.1c-0.1,2.8-1.3,4.3-3.5,4.9
	c-2.8,0.8-5.8,1.3-8.6,1.7c-11,1.4-22.1-0.1-33-3.5C45.5,107.86,36.9,102.46,38.7,93.96 M118.8,128.46c-8.9,2.8-19.4,4.1-30,4.3
	h-1.9c-16.6,0-33.7-4.5-46.8-11.9c-4.7-2.6-4.9-8.4-3.4-13c8.8,10.1,33.7,15.5,52.1,13.5c5.8-0.6,11-1.9,14.6-4.2
	c9.3-5.3,2.1-27-7.7-34.8c-3.5-2.5-5.5-4.1-4.6-6c1-2.2,5.8-7.3,8.8-8.8c2.4-1.3,4.4-0.9,5.9,0.6c10,10,16.1,22.8,19.3,36.8
	C127.6,115.56,127.2,125.76,118.8,128.46 M132,123.26c5.8-16.6-9.6-53.2-25.4-62.4c-5.3-3-12.4,1.1-17.9,7.6
	c-4.3,5-7.5,11.2-8.3,16.4c-0.6,4.4-0.8,6.9-2.9,7.1c-2.4,0.2-9.2-1.4-12.1-3.2c-2.3-1.5-2.9-3.5-2.4-5.5
	c3.6-13.6,11.8-25.4,22.3-35.1c1.1-1,2.2-2,3.5-2.9c7-5.6,14.3-8.3,19.9-3.4c7.4,6.7,14,15.9,19.8,25.8
	c8.2,14.2,12.9,31.1,13.1,46.3C141.6,119.36,136.7,122.36,132,123.26"/>
<path d="M196.2,50.26v47.5c0,2.8,1.9,5.6,5.4,5.6h35.7v7.8h-42c-10.9,0-18.5-7.7-18.5-18.5v-42.4
	C176.9,50.26,196.2,50.26,196.2,50.26z M458.2,111.16h-19.8v-60.9h19.8V111.16z M577.9,111.16v-47.5c0-2.8-1.8-5.6-5.3-5.6h-19.3
	v-7.8H622v7.8h-19.3c-3.5,0-5.3,2.7-5.3,5.6v47.5H577.9z M498.8,111.16v-47.5c0-2.8-1.9-5.6-5.4-5.6h-19.2v-7.8h68.6v7.8h-19.3
	c-3.5,0-5.4,2.7-5.4,5.6v47.5H498.8z M331.4,92.96v-42.7h19.7v46c0,4.2,4.8,7.3,9.8,7.3h4.5v-53.3h20.3v53.3h4.5
	c5.2,0,9.9-3.1,9.9-7.3v-46h19.7v42.7c0,10.7-8,18.2-18.5,18.2h-51.4C339.3,111.16,331.4,103.66,331.4,92.96 M248.7,68.76
	c0-10.8,7.6-18.5,18.5-18.5h50.1v7.8h-43.8c-3.5,0-5.3,2.7-5.3,5.6v14.2h39v8.2h-39v11.7c0,2.8,1.8,5.6,5.3,5.6h43.8v7.8h-50.1
	c-10.9,0-18.5-7.7-18.5-18.5L248.7,68.76L248.7,68.76z"/>
</svg>
