<?xml version="1.0" encoding="utf-8"?>
<!-- Generator: Adobe Illustrator 27.0.0, SVG Export Plug-In . SVG Version: 6.00 Build 0)  -->
<svg version="1.1" id="Layer_1" xmlns="http://www.w3.org/2000/svg" xmlns:xlink="http://www.w3.org/1999/xlink" x="0px" y="0px"
	 viewBox="0 0 2426.49 463.94" style="enable-background:new 0 0 2426.49 463.94;" xml:space="preserve">
<style type="text/css">
	.st0{fill-rule:evenodd;clip-rule:evenodd;}
</style>
<g>
	<path class="st0" d="M386.16,206.54l-179.29-73.31h241.19l13.61-100.18H142.99c-58.27,0-111.55,51.88-109.61,110.33
		c1.43,42.87,20.84,73.29,60.97,90.01l174.21,72.59H13.79L0,406.88l312.12,0.73c65.29,0.16,121.07-35.28,132.12-102.36
		C452.76,253.48,432.83,225.63,386.16,206.54z M458.75,407.61h180.01l16.06-129.2h56.57l-16.06,129.2h180.02L921.9,33.06H741.9
		l-16.16,129.93h-56.57l16.15-129.93H505.3L458.75,407.61L458.75,407.61z M1365.69,231.95c-4.63,40.13-23.89,72.85-49.67,105.25
		c-19.64,24.66-46.81,44.59-74.78,58.79c-32.74,16.64-65.21,23.16-101.61,26.13c-52.93,4.32-97.36-5.14-140.83-38.47
		c-23.2-17.79-42.27-43.32-51.54-71.14c-7.68-23.03-5.14-45.02-2.26-68.23l26.21-211.23h184.37l-32.75,259.14h47.59l32.75-259.14
		h185.47L1365.69,231.95L1365.69,231.95z M1549.74,407.61h-158.08l28.95-230.82h257.59l6.51-44.28h-258.54l12.46-99.45h319.94
		c124.46,0,126.94,178.26-15.41,208.89l131.98,71.28l34.28-280.17h398.05l-9.4,85.65h-213.95l-6.3,51.54h214.58l-10.84,100.89
		H2065.5l-6.23,50.8H2275l-9.4,85.65h-401.15l-6.43,54.46L1565.2,284.23L1549.74,407.61L1549.74,407.61z M2387.84,67.11h-6.67v14.29
		h6.89c3.9,0,6.69-0.54,8.37-1.62c1.7-1.09,2.56-2.84,2.56-5.24c0-2.62-0.88-4.51-2.66-5.68
		C2394.58,67.68,2391.74,67.11,2387.84,67.11L2387.84,67.11z M2389.32,61.84c5.98,0,10.49,0.99,13.5,2.97
		c3.01,2,4.54,4.93,4.54,8.87c0.1,2.77-0.81,5.49-2.58,7.63c-1.89,2.13-4.46,3.54-7.28,3.99l9.65,19.71h-9.14l-8.82-18.42h-8v18.42
		h-8.16V61.85h16.29V61.84L2389.32,61.84z M2421.51,84.53c0-4.62-0.8-8.92-2.41-12.96c-3.32-8.1-9.73-14.55-17.81-17.94
		c-4.08-1.68-8.45-2.52-12.87-2.49c-4.35-0.03-8.66,0.8-12.7,2.43c-3.91,1.58-7.45,3.95-10.39,6.96c-3.24,3.26-5.75,6.95-7.5,11.04
		c-3.45,7.99-3.49,17.04-0.1,25.06c1.67,3.98,4.07,7.55,7.22,10.71c9.35,9.55,23.56,12.47,35.91,7.37c4.01-1.63,7.68-4.05,11-7.21
		c3.11-3.03,5.5-6.51,7.15-10.45C2420.68,93.09,2421.51,88.93,2421.51,84.53L2421.51,84.53z M2388.28,46.08
		c10.23-0.11,20.06,3.98,27.18,11.32c7.07,7.12,11.03,16.74,11.02,26.77c0,5.21-0.96,10.09-2.84,14.66
		c-1.9,4.56-4.72,8.69-8.29,12.11c-3.64,3.58-7.93,6.43-12.65,8.39c-4.66,1.96-9.47,2.93-14.44,2.93
		c-4.99,0.02-9.92-0.98-14.51-2.93c-4.65-1.97-8.85-4.86-12.36-8.5c-3.62-3.64-6.36-7.76-8.26-12.32
		c-1.91-4.57-2.87-9.34-2.87-14.34c0-5.03,0.99-9.9,2.98-14.59c1.97-4.7,4.84-8.92,8.56-12.68c3.48-3.57,7.44-6.24,11.93-8.08
		C2378.27,47,2383.1,46.08,2388.28,46.08L2388.28,46.08z"/>
</g>
</svg>
