<?xml version="1.0" encoding="utf-8"?>
<!-- Generator: Adobe Illustrator 27.0.0, SVG Export Plug-In . SVG Version: 6.00 Build 0)  -->
<svg version="1.1" id="Layer_1" xmlns="http://www.w3.org/2000/svg" xmlns:xlink="http://www.w3.org/1999/xlink" x="0px" y="0px"
	 viewBox="0 0 2258.17 2043.93" style="enable-background:new 0 0 2258.17 2043.93;" xml:space="preserve">
<style type="text/css">
	.st0{fill:none;stroke:#000000;stroke-width:37.4567;stroke-miterlimit:33.89;}
	.st1{fill-rule:evenodd;clip-rule:evenodd;}
</style>
<path class="st0" d="M553.4,1729.47c100.15,213.77,358.1,377.8,580.83,105.11c202.02,231.46,430.69,139.17,544.19-31.84
	c61.13-92.09-162.2,84.12-145.35-269.04c0.32-7.04,240.29-62.35,240.02-69.45c-5.53-138.66-61.07-285.1-180.03-420.29
	c-158.91-180.5-513.4-282.07-790.43-109.83c-233.72,145.3-304.97,338.84-300.82,538.06c0.97,46.96-142.47,166.48-134.26,213.52
	C374.3,1724.47,535.7,1691.59,553.4,1729.47L553.4,1729.47z"/>
<path class="st0" d="M2030.39,1132.92c150.47-181.89,188.55-485.19-153.17-570.04c51.13-117.1,49.66-214.43,15.89-290.31
	c-63.93-143.63-221.7-176.38-277.21-188.08c-163.79-34.51-295.76,33.08-346.49,59.06c-29.53,15.12-208.06,122.25-303.05,342.36
	c-95.29,220.8-35.64,584.69,238.46,761.56c118.6,76.53,230.42,109,335.27,110.48c132.88,1.88,231.92-45.32,279.74-68.43
	C1921.8,1240.23,1990.61,1176.14,2030.39,1132.92L2030.39,1132.92z"/>
<path class="st0" d="M770.81,95.12C535.74,73.41,263.79,212.98,386.4,543.03c-125.54,23.8-205.09,79.9-248.72,150.58
	c-82.57,133.78-20.66,282.55,0.98,334.99c63.85,154.72,194.09,225.61,244.14,252.86c29.14,15.86,218.28,102.9,453.63,57.24
	c236.08-45.8,502.97-300.25,494.49-626.36c-3.67-141.11-39.9-251.76-97.8-339.19c-73.38-110.8-168.2-165.98-214.25-192.44
	C920.67,124.29,828.94,103.6,770.81,95.12L770.81,95.12z"/>
<path class="st1" d="M889.94,1422.98l-0.01,421.44l123.5-0.05l-0.06-159.52h68.88l196.8,159.54l177.47-0.03l-264.87-203.74
	l243.21-217.59l-166.99,0.03l-185.84,166.57h-68.66l-0.01-166.6L889.94,1422.98L889.94,1422.98z M1478.12,1523.84
	c7.65-46.2,59.32-99.13,116.17-99.13c0,0,83.95-1.78,150.9-1.78c66.95,0,151.15,1.49,151.15,1.49
	c119.33,4.49,118.8,89.12,118.8,137.6l-119.89-0.05c0-15.5-8-44.03-59.8-44.03h-157.18c-51.75,0-78.62,21.15-78.62,71.52
	l-0.05,88.82c0,51.19,26.73,70.98,78.73,70.98l153.11-0.1c46.41,0,66.77-26.95,66.77-64.52l-164.57-0.03v-71.15l284.98-0.05
	c1.7,26.58-1.97,143.33-1.97,143.33c0,45.39-54.24,86.4-136.69,86.4c0,0-101.07,1.3-173.26,1.3c-72.19,0-112.4-4.25-112.4-4.25
	c-69.69,0-108.49-52.26-116.07-102.97c0,0-5.95-29.08-5.95-107.03C1472.25,1552.22,1478.12,1523.84,1478.12,1523.84L1478.12,1523.84
	z"/>
<path class="st1" d="M420,1684.45l91.27-153.25l89.71,153.2L420,1684.45z M591.75,1423.03l-161.06-0.05l-237.07,421.47h137.35
	l41.44-74.6h277.7l41.84,74.6l136.3,0.05L591.75,1423.03L591.75,1423.03z"/>
</svg>
