<?xml version="1.0" encoding="utf-8"?>
<!-- Generator: Adobe Illustrator 27.0.0, SVG Export Plug-In . SVG Version: 6.00 Build 0)  -->
<svg version="1.1" id="Layer_1" xmlns="http://www.w3.org/2000/svg" xmlns:xlink="http://www.w3.org/1999/xlink" x="0px" y="0px"
	 viewBox="0 0 154.94 30.26" style="enable-background:new 0 0 154.94 30.26;" xml:space="preserve">
<style type="text/css">
	.st0{fill:#ED1C24;}
</style>
<g>
	<path d="M12.01,21.74H7.46L6.83,25H2.75L7.61,5.25h4.36L16.83,25h-4.18L12.01,21.74L12.01,21.74z M11.17,17.47l-1.43-7.1l-1.42,7.1
		H11.17L11.17,17.47z M18.1,5.25h4v14.89h6.24V25H18.1V5.25L18.1,5.25z M30.16,5.25h4v14.89h6.24V25H30.16V5.25L30.16,5.25z
		 M42.2,5.25h10.71v4.22h-6.7v3.14h6.22v4.03h-6.22v3.89h6.9V25H42.2V5.25L42.2,5.25z M55.28,5.25h3.73l4.87,10.93V5.25h3.77V25
		h-3.77l-4.85-10.85V25h-3.76V5.25L55.28,5.25z M86.39,5.25h4v6.91h4.37V5.25h4.01V25h-4.01v-7.99h-4.37V25h-4V5.25L86.39,5.25z
		 M101.42,5.25h10.71v4.22h-6.7v3.14h6.22v4.03h-6.22v3.89h6.9V25h-10.9V5.25L101.42,5.25z M122.43,21.74h-4.55L117.25,25h-4.08
		l4.86-19.75h4.36L127.25,25h-4.18L122.43,21.74L122.43,21.74z M121.59,17.47l-1.43-7.1l-1.42,7.1H121.59L121.59,17.47z
		 M126.37,5.25h12.15v4.88h-4.08V25h-4V10.13h-4.07V5.25L126.37,5.25z M140.35,5.25h4v6.91h4.37V5.25h4.01V25h-4.01v-7.99h-4.37V25
		h-4V5.25L140.35,5.25z"/>
	<path class="st0" d="M80.51,15.39l2.81,0.96c-0.15,0.79-0.29,1.43-0.42,1.9c-0.14,0.48-0.33,1.04-0.57,1.68l1.35,1.42
		c0.17,0.16,0.38,0.35,0.64,0.58l-1.93,3.39c-0.35-0.29-0.72-0.62-1.1-0.99c-0.38-0.38-0.72-0.7-1.02-0.97
		c-0.62,0.63-1.25,1.09-1.87,1.37c-0.86,0.4-1.85,0.59-2.94,0.59c-1.73,0-3.01-0.55-3.85-1.64c-0.84-1.09-1.26-2.42-1.26-3.99
		c0-1.12,0.25-2.18,0.74-3.19c0.49-1,1.3-1.85,2.43-2.54c-0.47-0.87-0.8-1.63-0.97-2.27c-0.18-0.64-0.27-1.3-0.27-1.96
		c0-1.4,0.35-2.56,1.05-3.46c0.7-0.91,1.76-1.36,3.19-1.36c1.45,0,2.52,0.43,3.2,1.29c0.68,0.86,1.02,1.89,1.02,3.1
		c0,0.67-0.1,1.32-0.31,1.94c-0.21,0.62-0.46,1.12-0.75,1.51c-0.3,0.39-0.82,0.96-1.58,1.72c0.63,0.96,1.28,1.85,1.97,2.68
		C80.23,16.6,80.39,16.02,80.51,15.39L80.51,15.39z M76.39,11.93c0.46-0.39,0.82-0.8,1.08-1.26c0.25-0.45,0.38-0.88,0.38-1.29
		c0-0.42-0.11-0.78-0.32-1.07c-0.21-0.29-0.5-0.44-0.87-0.44c-0.36,0-0.66,0.17-0.89,0.49c-0.23,0.32-0.34,0.7-0.34,1.15
		C75.42,10.06,75.74,10.87,76.39,11.93L76.39,11.93z M75.11,16.73c-0.49,0.53-0.82,0.98-0.98,1.36c-0.16,0.38-0.24,0.78-0.24,1.2
		c0,0.65,0.19,1.24,0.56,1.75c0.37,0.51,0.85,0.77,1.45,0.77c0.64,0,1.36-0.38,2.16-1.15C77.28,19.76,76.3,18.45,75.11,16.73
		L75.11,16.73z"/>
</g>
</svg>
