<?xml version="1.0" encoding="utf-8"?>
<!-- Generator: Adobe Illustrator 27.0.0, SVG Export Plug-In . SVG Version: 6.00 Build 0)  -->
<svg version="1.1" id="Layer_1" xmlns="http://www.w3.org/2000/svg" xmlns:xlink="http://www.w3.org/1999/xlink" x="0px" y="0px"
	 viewBox="0 0 800 800" style="enable-background:new 0 0 800 800;" xml:space="preserve">
<style type="text/css">
	.st0{fill:none;stroke:#FFFFFF;stroke-width:31.25;stroke-linecap:round;stroke-linejoin:round;stroke-miterlimit:6.25;}
</style>
<g id="Layer_2_00000141450963469905190930000007290823883223404200_">
	<g id="E445_Sound_square_wave">
		<circle class="st0" cx="400" cy="400" r="384.4"/>
		<path class="st0" d="M192.2,376V260.8c0-38.3,31-69.3,69.3-69.3H260c38.3,0,69.3,31,69.3,69.3v180.7c0,38.3,31,69.3,69.3,69.3l0,0
			c38.3,0,69.3-31,69.3-69.3l0,0v-33.1c0-38.3,31-69.3,69.3-69.3c0,0,0,0,0.1,0h1.2c38.3,0,69.3,31,69.3,69.2c0,0,0,0,0,0.1v200.2"
			/>
	</g>
</g>
</svg>
